<?xml version="1.0" encoding="utf-8"?>
<!-- Generator: Adobe Illustrator 25.2.1, SVG Export Plug-In . SVG Version: 6.00 Build 0)  -->
<svg version="1.1" id="Layer_1" xmlns="http://www.w3.org/2000/svg" xmlns:xlink="http://www.w3.org/1999/xlink" x="0px" y="0px"
	 viewBox="0 0 101.6 38.1" style="enable-background:new 0 0 101.6 38.1;" xml:space="preserve">
<style type="text/css">
	.st0{fill:#F5C313;}
	.st1{fill:#FFFFFF;}
</style>
<g>
	<path class="st0" d="M83.1,38.1H18.5C8.3,38.1,0,29.8,0,19.6v-1C0,8.3,8.3,0,18.5,0h64.6c10.2,0,18.5,8.3,18.5,18.5v1
		C101.6,29.8,93.3,38.1,83.1,38.1z"/>
	<g>
		<g>
			<path class="st1" d="M12.3,13.3h6.6v1.4h-5v3.3h4.5v1.4H14v4.4h-1.6V13.3z"/>
			<path class="st1" d="M21.1,23.8c-0.4-0.2-0.7-0.5-0.9-0.8s-0.3-0.8-0.3-1.2v0c0-0.7,0.2-1.2,0.8-1.6c0.5-0.4,1.2-0.6,2.1-0.7
				l2.9-0.2v1.1l-2.7,0.2c-0.5,0-0.8,0.1-1.1,0.3c-0.3,0.2-0.4,0.5-0.4,0.8v0c0,0.3,0.1,0.6,0.4,0.8c0.3,0.2,0.6,0.3,1,0.3
				c0.4,0,0.7-0.1,1-0.2s0.5-0.4,0.7-0.6c0.2-0.3,0.3-0.6,0.3-0.9v-2.3c0-0.4-0.1-0.8-0.4-1c-0.3-0.2-0.6-0.4-1.1-0.4
				c-0.5,0-0.8,0.1-1.1,0.3s-0.4,0.4-0.5,0.8l0,0.1h-1.5l0-0.1c0-0.4,0.2-0.8,0.4-1.2c0.3-0.4,0.6-0.6,1.1-0.8s1-0.3,1.6-0.3
				s1.2,0.1,1.6,0.3s0.8,0.5,1.1,0.9s0.4,0.8,0.4,1.3v5.3h-1.6v-1.2h0c-0.2,0.3-0.3,0.5-0.6,0.7c-0.2,0.2-0.5,0.4-0.8,0.5
				c-0.3,0.1-0.6,0.2-1,0.2C21.9,24.1,21.4,24,21.1,23.8z"/>
			<path class="st1" d="M28.1,14.8c-0.2-0.2-0.3-0.4-0.3-0.6c0-0.3,0.1-0.5,0.3-0.7s0.4-0.3,0.7-0.3c0.3,0,0.5,0.1,0.7,0.3
				s0.3,0.4,0.3,0.7c0,0.2-0.1,0.5-0.3,0.6C29.3,14.9,29,15,28.8,15C28.5,15,28.3,14.9,28.1,14.8z M28,16.2h1.6v7.7H28V16.2z"/>
			<path class="st1" d="M31.2,16.2h1.6v1.3h0c0.1-0.5,0.3-0.8,0.7-1.1c0.3-0.3,0.7-0.4,1.1-0.4c0.1,0,0.2,0,0.3,0c0.1,0,0.2,0,0.2,0
				v1.5c-0.1,0-0.2,0-0.3-0.1c-0.1,0-0.3,0-0.4,0c-0.3,0-0.6,0.1-0.9,0.2c-0.2,0.1-0.4,0.4-0.6,0.6c-0.1,0.3-0.2,0.6-0.2,1v4.6h-1.6
				V16.2z"/>
			<path class="st1" d="M37.5,23.6c-0.5-0.3-1-0.8-1.3-1.4c-0.3-0.6-0.4-1.3-0.4-2.1v0c0-0.8,0.1-1.5,0.4-2.1
				c0.3-0.6,0.7-1.1,1.2-1.4c0.5-0.3,1.2-0.5,1.9-0.5c0.7,0,1.3,0.2,1.9,0.5c0.5,0.3,0.9,0.8,1.2,1.4c0.3,0.6,0.4,1.3,0.4,2v0.5
				h-6.3v-1.1h5.5l-0.8,1v-0.6c0-0.5-0.1-1-0.2-1.4c-0.2-0.4-0.4-0.6-0.7-0.8s-0.6-0.3-1-0.3c-0.4,0-0.7,0.1-1,0.3s-0.5,0.5-0.7,0.8
				c-0.2,0.4-0.3,0.8-0.3,1.3v0.6c0,0.5,0.1,0.9,0.3,1.3c0.2,0.4,0.4,0.6,0.7,0.8c0.3,0.2,0.7,0.3,1.1,0.3c0.3,0,0.6,0,0.8-0.1
				c0.2-0.1,0.4-0.2,0.6-0.4c0.2-0.2,0.3-0.3,0.3-0.5l0-0.1h1.5l0,0.1c-0.1,0.3-0.2,0.6-0.4,0.9s-0.4,0.5-0.7,0.8
				c-0.3,0.2-0.6,0.4-1,0.5s-0.8,0.2-1.3,0.2C38.7,24.1,38,23.9,37.5,23.6z"/>
			<path class="st1" d="M48.3,23.7c-0.4-0.2-0.7-0.6-0.9-1S47,21.8,47,21.2v-5h1.6v4.7c0,0.6,0.1,1,0.4,1.3c0.3,0.3,0.7,0.5,1.2,0.5
				c0.4,0,0.7-0.1,1-0.2c0.3-0.2,0.5-0.4,0.6-0.7c0.1-0.3,0.2-0.6,0.2-1v-4.5h1.6v7.7h-1.6v-1.2h0c-0.2,0.4-0.5,0.7-0.9,0.9
				c-0.4,0.2-0.9,0.4-1.5,0.4C49.1,24.1,48.7,24,48.3,23.7z"/>
			<path class="st1" d="M55.3,16.2h1.6v1.2h0c0.2-0.4,0.5-0.7,0.9-0.9c0.4-0.2,0.9-0.4,1.5-0.4c0.8,0,1.5,0.3,2,0.8
				c0.5,0.5,0.7,1.2,0.7,2.1v5h-1.6v-4.7c0-0.6-0.1-1-0.4-1.3c-0.3-0.3-0.7-0.5-1.2-0.5c-0.4,0-0.7,0.1-1,0.2s-0.5,0.4-0.6,0.7
				c-0.1,0.3-0.2,0.6-0.2,1.1v4.5h-1.6V16.2z"/>
			<path class="st1" d="M67.6,23.6c-0.5-0.3-0.9-0.8-1.1-1.4c-0.3-0.6-0.4-1.3-0.4-2.1v0c0-0.8,0.1-1.5,0.4-2.1
				c0.3-0.6,0.6-1.1,1.1-1.4c0.5-0.3,1-0.5,1.7-0.5c0.5,0,1,0.1,1.4,0.4s0.8,0.6,1,1.1h0v-4.2h1.6v10.6h-1.6v-1.3h0
				c-0.2,0.4-0.6,0.8-1,1.1c-0.4,0.3-0.9,0.4-1.5,0.4C68.7,24.1,68.1,23.9,67.6,23.6z M70.8,22.4c0.3-0.2,0.5-0.5,0.7-0.9
				s0.3-0.9,0.3-1.4v0c0-0.5-0.1-1-0.3-1.4c-0.2-0.4-0.4-0.7-0.7-0.9c-0.3-0.2-0.7-0.3-1.1-0.3c-0.4,0-0.8,0.1-1.1,0.3
				c-0.3,0.2-0.5,0.5-0.7,0.9c-0.2,0.4-0.2,0.9-0.2,1.4v0c0,0.5,0.1,1,0.2,1.4c0.2,0.4,0.4,0.7,0.7,0.9s0.7,0.3,1.1,0.3
				C70.2,22.7,70.5,22.6,70.8,22.4z"/>
			<path class="st1" d="M76.4,23.6c-0.5-0.3-1-0.8-1.3-1.4c-0.3-0.6-0.5-1.3-0.5-2.1v0c0-0.8,0.2-1.5,0.5-2.1
				c0.3-0.6,0.7-1.1,1.3-1.4c0.5-0.3,1.2-0.5,1.9-0.5c0.7,0,1.4,0.2,1.9,0.5c0.5,0.3,1,0.8,1.3,1.4c0.3,0.6,0.5,1.3,0.5,2.1v0
				c0,0.8-0.2,1.5-0.5,2.1c-0.3,0.6-0.7,1.1-1.3,1.4c-0.5,0.3-1.2,0.5-1.9,0.5C77.6,24.1,76.9,23.9,76.4,23.6z M79.4,22.4
				c0.3-0.2,0.5-0.5,0.7-0.9c0.2-0.4,0.2-0.9,0.2-1.4v0c0-0.6-0.1-1-0.2-1.4c-0.2-0.4-0.4-0.7-0.7-0.9c-0.3-0.2-0.7-0.3-1.1-0.3
				c-0.4,0-0.8,0.1-1.1,0.3s-0.5,0.5-0.7,0.9s-0.3,0.9-0.3,1.4v0c0,0.6,0.1,1,0.3,1.4c0.2,0.4,0.4,0.7,0.7,0.9s0.7,0.3,1.1,0.3
				C78.7,22.7,79.1,22.6,79.4,22.4z"/>
			<path class="st1" d="M83.2,16.2h1.6v1.2h0c0.2-0.4,0.5-0.7,0.9-0.9c0.4-0.2,0.9-0.4,1.5-0.4c0.8,0,1.5,0.3,2,0.8
				c0.5,0.5,0.7,1.2,0.7,2.1v5h-1.6v-4.7c0-0.6-0.1-1-0.4-1.3c-0.3-0.3-0.7-0.5-1.2-0.5c-0.4,0-0.7,0.1-1,0.2s-0.5,0.4-0.6,0.7
				c-0.1,0.3-0.2,0.6-0.2,1.1v4.5h-1.6V16.2z"/>
		</g>
	</g>
</g>
</svg>
