<?xml version="1.0" encoding="utf-8"?>
<!-- Generator: Adobe Illustrator 25.2.1, SVG Export Plug-In . SVG Version: 6.00 Build 0)  -->
<svg version="1.1" id="Layer_1" xmlns="http://www.w3.org/2000/svg" xmlns:xlink="http://www.w3.org/1999/xlink" x="0px" y="0px"
	 viewBox="0 0 142.8 147.4" style="enable-background:new 0 0 142.8 147.4;" xml:space="preserve">
<style type="text/css">
	.st0{opacity:0.4;}
	.st1{fill:#FFFFFF;}
	.st2{opacity:0.7;}
	.st3{opacity:0.7;fill:#FFFFFF;}
</style>
<g>
	<g>
		<g class="st0">
			<g>
				<path class="st1" d="M32.2,69.7c0,20.6,16.7,37.3,37.3,37.3C69.5,86.4,52.8,69.7,32.2,69.7z"/>
			</g>
		</g>
		<path class="st1" d="M78.2,51.7c0,0.5-0.1,1.1-0.2,1.6c-0.1,0.5-0.3,1-0.5,1.5c-0.2,0.5-0.5,1-0.7,1.4s-0.6,0.8-1,1.2
			c-0.4,0.4-0.8,0.7-1.2,1c-0.4,0.3-0.9,0.5-1.4,0.7c-0.5,0.2-1,0.4-1.5,0.5c-0.5,0.1-1,0.2-1.6,0.2c-0.5,0-1.1-0.1-1.6-0.2
			c-0.5-0.1-1-0.3-1.5-0.5c-0.5-0.2-1-0.5-1.4-0.7c-0.4-0.3-0.8-0.6-1.2-1c-0.4-0.4-0.7-0.8-1-1.2c-0.3-0.4-0.5-0.9-0.7-1.4
			c-0.2-0.5-0.4-1-0.5-1.5c-0.1-0.5-0.2-1-0.2-1.6s0.1-1,0.2-1.6c0.1-0.5,0.3-1,0.5-1.5c0.2-0.5,0.4-1,0.7-1.4
			c0.3-0.4,0.6-0.8,1-1.2c0.4-0.4,0.8-0.7,1.2-1c0.4-0.3,0.9-0.5,1.4-0.7c0.5-0.2,1-0.4,1.5-0.5c0.5-0.1,1-0.2,1.6-0.2
			c0.5,0,1.1,0.1,1.6,0.2c0.5,0.1,1,0.3,1.5,0.5c0.5,0.2,1,0.4,1.4,0.7c0.4,0.3,0.8,0.6,1.2,1c0.4,0.4,0.7,0.8,1,1.2
			c0.3,0.4,0.5,0.9,0.7,1.4c0.2,0.5,0.4,1,0.5,1.5C78.2,50.6,78.2,51.1,78.2,51.7z"/>
		<g class="st0">
			<g>
				<path class="st1" d="M108.2,69.7c-20.6,0-37.3,16.7-37.3,37.3C91.5,106.9,108.2,90.3,108.2,69.7z"/>
			</g>
		</g>
		<g class="st2">
			<path class="st1" d="M86.8,25.2l-3.9-3.9c-0.4-0.4-1-0.2-1.1,0.3c-0.2,0.8-0.4,1.5-0.6,2.2c-0.1,0.4,0,0.8,0.3,1.1l1.6,1.6
				c8.8,8.8,8.8,23,0,31.7L70.8,70.5c-0.3,0.3-0.9,0.3-1.2,0L57.3,58.3c-8.8-8.8-8.8-23,0-31.7l1-1c0.3-0.3,0.4-0.7,0.2-1.1
				c-0.3-0.8-0.5-1.6-0.7-2.4c-0.1-0.4-0.6-0.5-0.9-0.2l-3.4,3.4c-12.9,12.8-12.9,33.6,0,46.5l15.8,15.8c0.4,0.4,1.2,0.4,1.6,0
				l15.8-15.8C99.7,58.9,99.7,38,86.8,25.2z"/>
		</g>
		<path class="st3" d="M76.2,10.5L69.8,0l-5.9,10.4c-1.4,2.2-1.5,5.1-0.1,7.5c2.1,3.4,6.5,4.5,9.9,2.4
			C77.2,18.3,78.3,13.9,76.2,10.5z"/>
	</g>
	<g class="st2">
		<path class="st1" d="M0,122h5.5l3.8,14.7h0.2l3.7-14.7h5.2l-6.2,19.7h-6L0,122z"/>
		<path class="st1" d="M22.6,141.2c-1.1-0.5-2-1.4-2.6-2.4c-0.6-1.1-0.9-2.4-0.9-4v-1.5c0-1.6,0.3-3,1-4c0.6-1.1,1.5-1.9,2.6-2.4
			c1.1-0.5,2.3-0.8,3.6-0.8c1.4,0,2.6,0.3,3.7,0.9c1.1,0.6,1.9,1.4,2.5,2.5c0.6,1.1,0.9,2.4,0.9,3.9v1.7h-9.7v0.7
			c0,0.9,0.3,1.6,0.8,2.1c0.5,0.5,1.2,0.8,2,0.8c0.5,0,0.9-0.1,1.3-0.2c0.4-0.1,0.7-0.3,0.9-0.6c0.2-0.3,0.4-0.5,0.4-0.9h4.2
			c0,0.5-0.2,1.1-0.4,1.7c-0.3,0.6-0.7,1.1-1.2,1.7c-0.5,0.5-1.2,0.9-2.1,1.3c-0.8,0.3-1.9,0.5-3,0.5C25,142,23.7,141.8,22.6,141.2z
			 M28.9,132.4C28.9,132.4,28.9,132.4,28.9,132.4c0-0.1,0-0.1,0-0.1c0-0.6-0.1-1.1-0.3-1.5c-0.2-0.4-0.5-0.8-0.9-1
			c-0.4-0.3-0.9-0.4-1.4-0.4c-0.5,0-1,0.1-1.4,0.4c-0.4,0.3-0.7,0.6-0.9,1c-0.2,0.4-0.3,1-0.3,1.5c0,0,0,0,0,0.1s0,0,0,0.1H28.9z"/>
		<path class="st1" d="M45.6,143.4c0.5-0.5,0.7-1.3,0.7-2.2V139H46c-0.1,0.3-0.3,0.7-0.6,1c-0.3,0.3-0.6,0.5-0.9,0.8
			c-0.4,0.2-0.8,0.4-1.2,0.5c-0.5,0.1-1,0.2-1.5,0.2c-1.1,0-2.1-0.3-3-0.8c-0.9-0.5-1.5-1.3-2-2.4c-0.5-1-0.7-2.3-0.7-3.9v-1.2
			c0-1.5,0.2-2.8,0.7-3.9c0.5-1,1.1-1.8,2-2.4c0.9-0.5,1.8-0.8,3-0.8c0.8,0,1.4,0.1,2,0.3c0.6,0.2,1.1,0.5,1.5,0.9
			c0.4,0.4,0.7,0.8,0.9,1.3h0.2v-2.4h4.6v15.2c0,1.1-0.2,2.1-0.7,2.8c-0.4,0.8-1,1.4-1.8,1.8c-0.7,0.4-1.6,0.8-2.5,1
			c-0.9,0.2-1.8,0.3-2.7,0.3c-1.6,0-2.9-0.2-3.9-0.7c-1-0.4-1.8-1-2.2-1.7c-0.5-0.7-0.8-1.5-0.8-2.3h4.4c0.1,0.3,0.2,0.6,0.5,0.8
			c0.2,0.2,0.5,0.4,0.9,0.5s0.8,0.2,1.3,0.2C44.4,144.2,45.1,143.9,45.6,143.4z M42.1,130.2c-0.4,0.3-0.7,0.7-1,1.3
			c-0.2,0.5-0.3,1.2-0.3,2v1.1c0,0.8,0.1,1.4,0.4,2c0.2,0.6,0.6,1,1,1.3s0.9,0.4,1.4,0.4c0.6,0,1-0.1,1.4-0.4
			c0.4-0.3,0.7-0.7,0.9-1.2c0.2-0.5,0.3-1.1,0.3-1.8v-1.4c0-0.7-0.1-1.3-0.3-1.9c-0.2-0.5-0.5-0.9-0.9-1.2c-0.4-0.3-0.9-0.4-1.4-0.4
			C43,129.7,42.6,129.9,42.1,130.2z"/>
	</g>
	<g>
		<path class="st1" d="M58.7,141.9v-19.7h2.4l9.3,15.2h0.1v-15.2H73v19.7h-2.4l-9.3-15.2h-0.1v15.2H58.7z"/>
		<path class="st1" d="M78.5,140.9c-0.9-0.9-1.3-2-1.3-3.4c0-1.3,0.4-2.4,1.3-3.2c0.9-0.8,2.1-1.2,3.8-1.2h3.8v-1.5
			c0-1-0.3-1.7-0.8-2.2c-0.5-0.5-1.3-0.7-2.2-0.7c-0.6,0-1.1,0.1-1.5,0.2c-0.4,0.2-0.7,0.4-0.9,0.6c-0.2,0.3-0.4,0.6-0.5,0.9h-2.4
			c0.1-0.6,0.2-1.2,0.5-1.7c0.3-0.5,0.6-0.9,1.1-1.3c0.5-0.3,1-0.6,1.6-0.8c0.6-0.2,1.4-0.3,2.2-0.3c1,0,1.9,0.2,2.7,0.5
			c0.8,0.3,1.5,0.9,2,1.6c0.5,0.7,0.7,1.7,0.7,3v10.4h-2.4v-2h-0.1c-0.2,0.4-0.5,0.8-0.9,1.1s-0.8,0.6-1.4,0.8
			c-0.5,0.2-1.2,0.3-1.9,0.3C80.5,142.2,79.4,141.7,78.5,140.9z M84.4,139.5c0.5-0.3,0.9-0.7,1.2-1.2c0.3-0.5,0.5-1,0.5-1.7V135
			h-3.6c-1,0-1.7,0.2-2.1,0.7c-0.4,0.5-0.6,1-0.6,1.7c0,0.9,0.3,1.5,0.9,1.9c0.6,0.4,1.2,0.6,2,0.6C83.3,140,83.9,139.8,84.4,139.5z
			"/>
		<path class="st1" d="M94.1,122.9h2.5v3.8h3.3v2.1h-3.3v8.8c0,0.9,0.2,1.5,0.5,1.8c0.3,0.3,0.9,0.5,1.8,0.5c0.2,0,0.4,0,0.6,0
			c0.2,0,0.4,0,0.5,0v2.1c-0.1,0-0.4,0.1-0.8,0.1c-0.4,0-0.7,0-1,0c-1.1,0-2-0.2-2.6-0.5c-0.6-0.3-1-0.8-1.2-1.4
			c-0.2-0.7-0.3-1.5-0.3-2.5v-8.8h-2.2v-2.1h2.2V122.9z"/>
		<path class="st1" d="M115.6,141.9h-2.5v-2.5h-0.1c-0.1,0.4-0.4,0.8-0.7,1.3c-0.4,0.4-0.8,0.8-1.4,1.1c-0.6,0.3-1.3,0.4-2.1,0.4
			c-1,0-1.8-0.2-2.6-0.5c-0.7-0.3-1.3-0.8-1.8-1.6c-0.4-0.7-0.6-1.7-0.6-2.8v-10.5h2.5v9.8c0,0.8,0.1,1.5,0.4,2s0.7,0.8,1.1,1
			c0.5,0.2,1,0.3,1.6,0.3c0.7,0,1.3-0.2,1.9-0.5c0.6-0.3,1-0.8,1.3-1.3c0.3-0.5,0.5-1.1,0.5-1.8v-9.6h2.5V141.9z"/>
		<path class="st1" d="M120.8,126.7h2.5v2.3h0.1c0.1-0.3,0.3-0.7,0.6-1.1c0.3-0.4,0.7-0.7,1.2-1c0.5-0.3,1.2-0.4,2.1-0.4
			c0.2,0,0.3,0,0.5,0c0.2,0,0.3,0,0.4,0.1v2.4c-0.1,0-0.3-0.1-0.5-0.1c-0.2,0-0.4,0-0.7,0c-0.8,0-1.5,0.2-2.1,0.5s-1,0.8-1.3,1.3
			c-0.3,0.5-0.4,1.2-0.4,1.9v9.4h-2.5V126.7z"/>
		<path class="st1" d="M133.7,141.3c-0.9-0.5-1.6-1.3-2.1-2.3c-0.5-1-0.7-2.2-0.7-3.6v-2.3c0-1.4,0.3-2.6,0.8-3.6
			c0.5-1,1.2-1.8,2.1-2.3c0.9-0.5,1.9-0.8,3.1-0.8c1.2,0,2.2,0.3,3.1,0.8s1.6,1.3,2.1,2.3c0.5,1,0.8,2.2,0.8,3.5v1.8h-9.5v0.8
			c0,1.2,0.3,2.2,0.9,3c0.6,0.8,1.5,1.2,2.7,1.2c0.6,0,1.1-0.1,1.5-0.3c0.4-0.2,0.8-0.4,1.1-0.7c0.3-0.3,0.4-0.6,0.5-0.9h2.6
			c-0.1,0.4-0.2,0.8-0.5,1.3c-0.3,0.5-0.6,0.9-1.1,1.3c-0.5,0.4-1,0.7-1.7,1c-0.7,0.3-1.5,0.4-2.4,0.4
			C135.7,142.2,134.6,141.9,133.7,141.3z M140.3,133.1c0,0,0-0.1,0-0.1s0-0.1,0-0.1c0-0.8-0.1-1.6-0.4-2.2c-0.3-0.6-0.7-1.1-1.2-1.5
			c-0.5-0.3-1.1-0.5-1.8-0.5c-0.7,0-1.3,0.2-1.9,0.5c-0.5,0.3-0.9,0.8-1.2,1.5c-0.3,0.6-0.4,1.4-0.4,2.2c0,0,0,0.1,0,0.1
			s0,0.1,0,0.1H140.3z"/>
	</g>
</g>
</svg>
