<?xml version="1.0" encoding="utf-8"?>
<!-- Generator: Adobe Illustrator 25.2.1, SVG Export Plug-In . SVG Version: 6.00 Build 0)  -->
<svg version="1.1" id="Layer_1" xmlns="http://www.w3.org/2000/svg" xmlns:xlink="http://www.w3.org/1999/xlink" x="0px" y="0px"
	 viewBox="0 0 202.5 82.6" style="enable-background:new 0 0 202.5 82.6;" xml:space="preserve">
<style type="text/css">
	.st0{fill:#207F29;}
	.st1{fill:#F8C310;}
	.st2{fill:#236FB0;}
</style>
<g>
	<g>
		<g>
			<path class="st0" d="M0,50.1c0,18,14.6,32.5,32.6,32.5C32.6,64.7,18,50.1,0,50.1z"/>
		</g>
	</g>
	<path class="st1" d="M42.1,32c0,0.6-0.1,1.2-0.2,1.7c-0.1,0.6-0.3,1.1-0.5,1.7c-0.2,0.5-0.5,1.1-0.8,1.5s-0.7,0.9-1.1,1.4
		c-0.4,0.4-0.9,0.8-1.4,1.1s-1,0.6-1.5,0.8s-1.1,0.4-1.7,0.5c-0.6,0.1-1.2,0.2-1.7,0.2c-0.6,0-1.2-0.1-1.7-0.2
		c-0.6-0.1-1.1-0.3-1.7-0.5c-0.5-0.2-1.1-0.5-1.5-0.8c-0.5-0.3-0.9-0.7-1.4-1.1c-0.4-0.4-0.8-0.9-1.1-1.4c-0.3-0.5-0.6-1-0.8-1.5
		c-0.2-0.5-0.4-1.1-0.5-1.7c-0.1-0.6-0.2-1.2-0.2-1.7s0.1-1.2,0.2-1.7c0.1-0.6,0.3-1.1,0.5-1.7s0.5-1.1,0.8-1.5
		c0.3-0.5,0.7-0.9,1.1-1.3s0.9-0.8,1.4-1.1c0.5-0.3,1-0.6,1.5-0.8c0.5-0.2,1.1-0.4,1.7-0.5c0.6-0.1,1.2-0.2,1.7-0.2
		c0.6,0,1.2,0.1,1.7,0.2s1.1,0.3,1.7,0.5c0.5,0.2,1.1,0.5,1.5,0.8c0.5,0.3,0.9,0.7,1.4,1.1c0.4,0.4,0.8,0.9,1.1,1.3
		c0.3,0.5,0.6,1,0.8,1.5s0.4,1.1,0.5,1.7C42.1,30.8,42.1,31.4,42.1,32z"/>
	<g>
		<g>
			<path class="st0" d="M66.4,50.1c-18,0-32.6,14.6-32.6,32.5C51.8,82.6,66.4,68.1,66.4,50.1z"/>
		</g>
	</g>
	<g>
		<path class="st0" d="M47.7,11.3l-3.4-3.4c-0.3-0.3-0.8-0.2-0.9,0.3c-0.1,0.7-0.3,1.3-0.5,2c-0.1,0.3,0,0.7,0.2,1l1.4,1.4
			c7.7,7.6,7.7,20,0,27.7L33.7,50.9c-0.3,0.3-0.8,0.3-1.1,0L21.9,40.2c-7.7-7.6-7.7-20,0-27.7l0.9-0.9c0.3-0.3,0.3-0.7,0.2-1
			c-0.2-0.7-0.4-1.4-0.6-2.1c-0.1-0.3-0.5-0.5-0.8-0.2l-3,3c-11.2,11.2-11.2,29.4,0,40.6l13.8,13.8c0.4,0.4,1,0.4,1.4,0l13.8-13.8
			C58.9,40.7,58.9,22.5,47.7,11.3z"/>
	</g>
	<path class="st2" d="M38.5,9.2L32.9,0l-5.2,9.1c-1.2,1.9-1.3,4.4,0,6.5c1.8,3,5.7,3.9,8.7,2.1S40.3,12.1,38.5,9.2z"/>
</g>
<g>
	<g>
		<g>
			<path class="st0" d="M84.8,33.7h4.5l3.1,12h0.2l3-12h4.3l-5.1,16.1H90L84.8,33.7z"/>
			<path class="st0" d="M104.2,49.3c-0.9-0.4-1.6-1.1-2.1-2s-0.7-2-0.7-3.3v-1.2c0-1.3,0.3-2.4,0.8-3.3c0.5-0.9,1.2-1.5,2.1-2
				s1.9-0.7,2.9-0.7c1.1,0,2.1,0.2,3,0.7s1.5,1.1,2,2s0.7,1.9,0.7,3.2v1.4H105v0.6c0,0.7,0.2,1.3,0.7,1.7c0.4,0.4,1,0.7,1.7,0.7
				c0.4,0,0.7-0.1,1-0.2c0.3-0.1,0.5-0.3,0.7-0.5s0.3-0.4,0.3-0.7h3.4c0,0.4-0.1,0.9-0.4,1.4c-0.2,0.5-0.5,0.9-1,1.3
				c-0.4,0.4-1,0.8-1.7,1s-1.5,0.4-2.5,0.4C106.1,50,105.1,49.8,104.2,49.3z M109.3,42.1L109.3,42.1L109.3,42.1c0-0.6-0.1-1-0.3-1.3
				s-0.4-0.6-0.7-0.8s-0.7-0.3-1.1-0.3s-0.8,0.1-1.1,0.3s-0.6,0.5-0.8,0.8s-0.3,0.8-0.3,1.3l0,0l0,0H109.3z"/>
			<path class="st0" d="M122.9,51.1c0.4-0.4,0.6-1,0.6-1.8v-1.7h-0.2c-0.1,0.3-0.3,0.5-0.5,0.8c-0.2,0.2-0.5,0.4-0.8,0.6
				c-0.3,0.2-0.6,0.3-1,0.4c-0.4,0.1-0.8,0.2-1.2,0.2c-0.9,0-1.7-0.2-2.4-0.7s-1.2-1.1-1.6-1.9c-0.4-0.9-0.6-1.9-0.6-3.1v-1
				c0-1.2,0.2-2.3,0.6-3.1c0.4-0.9,0.9-1.5,1.6-1.9s1.5-0.7,2.4-0.7c0.6,0,1.2,0.1,1.6,0.3c0.5,0.2,0.9,0.4,1.2,0.8
				c0.3,0.3,0.6,0.7,0.7,1.1h0.2v-2h3.7v12.4c0,0.9-0.2,1.7-0.5,2.3s-0.8,1.1-1.4,1.5s-1.3,0.6-2,0.8s-1.5,0.2-2.2,0.2
				c-1.3,0-2.3-0.2-3.2-0.5c-0.8-0.4-1.4-0.8-1.8-1.4c-0.4-0.6-0.6-1.2-0.6-1.9h3.6c0.1,0.2,0.2,0.5,0.4,0.6s0.4,0.3,0.7,0.4
				c0.3,0.1,0.6,0.1,1,0.1C121.9,51.7,122.5,51.5,122.9,51.1z M120.1,40.3c-0.3,0.2-0.6,0.6-0.8,1c-0.2,0.4-0.3,1-0.3,1.6v0.9
				c0,0.6,0.1,1.2,0.3,1.6c0.2,0.5,0.5,0.8,0.8,1s0.7,0.4,1.2,0.4s0.8-0.1,1.2-0.4c0.3-0.2,0.6-0.6,0.7-1s0.3-0.9,0.3-1.5v-1.1
				c0-0.6-0.1-1.1-0.3-1.5s-0.4-0.8-0.8-1s-0.7-0.4-1.2-0.4C120.9,40,120.5,40.1,120.1,40.3z"/>
		</g>
	</g>
	<g>
		<g>
			<path class="st2" d="M132.7,49.9V33.8h1.9l7.5,12.4h0.1V33.8h2v16.1h-1.9l-7.6-12.4h-0.1v12.4H132.7z"/>
			<path class="st2" d="M148.8,49c-0.7-0.7-1.1-1.6-1.1-2.8c0-1.1,0.4-2,1.1-2.6c0.7-0.7,1.7-1,3.1-1h3.1v-1.2
				c0-0.8-0.2-1.4-0.7-1.8c-0.4-0.4-1-0.6-1.8-0.6c-0.5,0-0.9,0.1-1.2,0.2c-0.3,0.1-0.6,0.3-0.7,0.5s-0.3,0.5-0.4,0.8h-2
				c0-0.5,0.2-1,0.4-1.4s0.5-0.7,0.9-1s0.8-0.5,1.3-0.6s1.1-0.2,1.8-0.2c0.8,0,1.6,0.1,2.2,0.4c0.7,0.3,1.2,0.7,1.6,1.3
				s0.6,1.4,0.6,2.4v8.4h-2v-1.6h-0.1c-0.2,0.3-0.4,0.6-0.7,0.9c-0.3,0.3-0.7,0.5-1.1,0.7c-0.4,0.2-0.9,0.3-1.5,0.3
				C150.4,50.1,149.5,49.7,148.8,49z M153.5,47.9c0.4-0.2,0.8-0.5,1-0.9s0.4-0.8,0.4-1.4v-1.4H152c-0.8,0-1.4,0.2-1.7,0.6
				c-0.3,0.4-0.5,0.8-0.5,1.4c0,0.7,0.2,1.2,0.7,1.6c0.5,0.3,1,0.5,1.6,0.5C152.6,48.3,153.1,48.2,153.5,47.9z"/>
			<path class="st2" d="M161.5,34.4h2v3.1h2.7v1.7h-2.7v7.2c0,0.7,0.1,1.2,0.4,1.5c0.3,0.2,0.8,0.4,1.5,0.4c0.1,0,0.3,0,0.5,0
				s0.3,0,0.4,0V50c-0.1,0-0.3,0-0.6,0.1s-0.6,0-0.8,0c-0.9,0-1.6-0.1-2.1-0.4s-0.8-0.6-1-1.2c-0.2-0.5-0.3-1.2-0.3-2v-7.1h-1.8
				v-1.7h1.8L161.5,34.4L161.5,34.4z"/>
			<path class="st2" d="M179,49.9h-2v-2.1h-0.1c-0.1,0.3-0.3,0.7-0.6,1s-0.7,0.6-1.2,0.9s-1.1,0.4-1.8,0.4c-0.8,0-1.5-0.1-2.1-0.4
				s-1.1-0.7-1.4-1.3c-0.3-0.6-0.5-1.4-0.5-2.3v-8.6h2v8c0,0.7,0.1,1.2,0.4,1.6c0.2,0.4,0.5,0.7,0.9,0.8s0.8,0.2,1.3,0.2
				c0.6,0,1.1-0.1,1.6-0.4s0.8-0.6,1.1-1.1s0.4-0.9,0.4-1.5v-7.8h2L179,49.9L179,49.9z"/>
			<path class="st2" d="M183.2,37.5h2v1.9h0.1c0.1-0.3,0.3-0.6,0.5-0.9c0.2-0.3,0.6-0.6,1-0.8s1-0.4,1.7-0.4c0.1,0,0.3,0,0.4,0
				c0.1,0,0.2,0,0.4,0v1.9c-0.1,0-0.2,0-0.4-0.1c-0.2,0-0.4,0-0.5,0c-0.7,0-1.3,0.1-1.7,0.4c-0.5,0.3-0.8,0.6-1,1.1
				c-0.2,0.4-0.3,1-0.3,1.5v7.6h-2V37.5H183.2z"/>
			<path class="st2" d="M193.7,49.4c-0.8-0.4-1.3-1.1-1.7-1.9c-0.4-0.8-0.6-1.8-0.6-2.9v-1.9c0-1.1,0.2-2.1,0.6-2.9
				c0.4-0.8,1-1.4,1.7-1.9c0.7-0.4,1.6-0.7,2.5-0.7c1,0,1.8,0.2,2.5,0.7s1.3,1.1,1.7,1.9c0.4,0.8,0.6,1.8,0.6,2.9v1.5h-7.7v0.6
				c0,1,0.3,1.8,0.8,2.4c0.5,0.7,1.3,1,2.2,1c0.5,0,0.9-0.1,1.2-0.2c0.4-0.1,0.6-0.3,0.9-0.5c0.2-0.2,0.4-0.5,0.4-0.7h2.1
				c0,0.3-0.2,0.7-0.4,1.1c-0.2,0.4-0.5,0.7-0.9,1.1c-0.4,0.3-0.8,0.6-1.4,0.8c-0.6,0.2-1.2,0.3-1.9,0.3
				C195.4,50.1,194.5,49.9,193.7,49.4z M199.2,42.7C199.2,42.7,199.2,42.6,199.2,42.7c0-0.1,0-0.2,0-0.2c0-0.7-0.1-1.3-0.4-1.8
				c-0.2-0.5-0.6-0.9-1-1.2s-0.9-0.4-1.5-0.4s-1.1,0.1-1.5,0.4s-0.8,0.7-1,1.2s-0.4,1.1-0.4,1.8v0.1v0.1
				C193.4,42.7,199.2,42.7,199.2,42.7z"/>
		</g>
	</g>
</g>
</svg>
