<?xml version="1.0" encoding="utf-8"?>
<!-- Generator: Adobe Illustrator 25.2.1, SVG Export Plug-In . SVG Version: 6.00 Build 0)  -->
<svg version="1.1" id="Layer_1" xmlns="http://www.w3.org/2000/svg" xmlns:xlink="http://www.w3.org/1999/xlink" x="0px" y="0px"
	 viewBox="0 0 58.9 55.3" style="enable-background:new 0 0 58.9 55.3;" xml:space="preserve">
<style type="text/css">
	.st0{fill:#FFFFFF;}
	.st1{fill:#265E92;}
</style>
<g>
	<path class="st0" d="M51.7,55.3H7.2c-4,0-7.2-3.2-7.2-7.2V7.2C0,3.2,3.2,0,7.2,0h44.5c4,0,7.2,3.2,7.2,7.2v40.9
		C58.9,52.1,55.7,55.3,51.7,55.3z"/>
	<path class="st1" d="M37.1,28h-5.8v20h-8.6V28H20v-8.6h2.8v-3.1c0-0.8,0.1-1.7,0.3-2.7c0.2-1,0.6-1.9,1.2-2.8
		c0.6-0.9,1.5-1.6,2.5-2.2C27.9,8,29.3,7.7,31,7.7l6,0.1v5.9h-3.8c-0.4,0-0.8,0.3-1.2,0.9c-0.5,0.6-0.7,1.3-0.7,2.1v2.8h6.6L37.1,28
		z"/>
</g>
</svg>
