<?xml version="1.0" encoding="utf-8"?>
<!-- Generator: Adobe Illustrator 25.2.1, SVG Export Plug-In . SVG Version: 6.00 Build 0)  -->
<svg version="1.1" id="Layer_1" xmlns="http://www.w3.org/2000/svg" xmlns:xlink="http://www.w3.org/1999/xlink" x="0px" y="0px"
	 viewBox="0 0 60.5 60.5" style="enable-background:new 0 0 60.5 60.5;" xml:space="preserve">
<style type="text/css">
	.st0{fill:#FFFFFF;}
</style>
<g>
	<path id="Icon_awesome-meetup_3_" class="st0" d="M11.7,49.9c0.1,0.6-0.3,1.2-0.9,1.4c0,0,0,0,0,0c-0.6,0.1-1.2-0.3-1.3-0.9
		c0,0,0,0,0,0c-0.1-0.6,0.3-1.2,0.9-1.4C11,48.9,11.6,49.3,11.7,49.9z M35.4,53c-0.7,0.5-0.9,1.5-0.4,2.2c0.5,0.7,1.5,0.9,2.2,0.4
		c0,0,0,0,0,0c0.7-0.5,0.9-1.5,0.4-2.2C37.1,52.7,36.2,52.5,35.4,53C35.4,53,35.4,53,35.4,53L35.4,53z M18.1,6.1
		c0.7-0.2,1.1-0.9,1-1.6c-0.1-0.7-0.7-1.1-1.4-1c0,0-0.1,0-0.1,0c-0.7,0.2-1.2,0.9-1,1.6C16.7,5.8,17.4,6.3,18.1,6.1
		C18.1,6.1,18.1,6.1,18.1,6.1L18.1,6.1z M4.5,28.8c-1.1-0.8-2.6-0.5-3.4,0.6c0,0,0,0,0,0c-0.8,1.1-0.5,2.7,0.6,3.5
		c1.1,0.8,2.6,0.5,3.4-0.6c0,0,0-0.1,0.1-0.1C5.9,31.2,5.6,29.6,4.5,28.8L4.5,28.8z M34.9,9.7c1.2-0.7,1.5-2.2,0.9-3.4
		c-0.7-1.2-2.2-1.6-3.3-0.9c0,0,0,0,0,0c-1.2,0.7-1.5,2.2-0.8,3.4C32.3,10,33.8,10.4,34.9,9.7C34.9,9.7,34.9,9.7,34.9,9.7L34.9,9.7z
		 M13.5,16.2c0.8-0.6,1.1-1.8,0.5-2.7c-0.6-0.8-1.7-1.1-2.6-0.5c0,0,0,0,0,0c-0.8,0.6-1.1,1.8-0.5,2.7
		C11.5,16.5,12.7,16.8,13.5,16.2C13.5,16.2,13.5,16.2,13.5,16.2L13.5,16.2z M55.2,33.7c-0.8,0.2-1.4,1-1.2,1.9
		c0.2,0.8,1,1.4,1.8,1.2c0,0,0,0,0,0c0.8-0.2,1.4-1,1.2-1.8c0,0,0,0,0,0C56.9,34,56.1,33.5,55.2,33.7z M59.7,27.3
		c-0.1-0.6-0.7-1-1.3-0.9c0,0,0,0,0,0c-0.6,0.1-1.1,0.7-1,1.4s0.7,1.1,1.4,1C59.4,28.6,59.8,28,59.7,27.3
		C59.7,27.3,59.7,27.3,59.7,27.3L59.7,27.3z M50.7,19c-1,0.7-1.2,2-0.5,2.9c0.7,1,2,1.2,2.9,0.5c0.9-0.7,1.2-2,0.5-2.9
		C53,18.7,51.7,18.4,50.7,19C50.7,19,50.7,19,50.7,19L50.7,19z M50,34.6c3,4.8,1.7,11.2-2.9,14.5c-1.9,1.3-4.1,2-6.4,1.9
		c-1,3.9-4.9,6.2-8.7,5.2c-1.1-0.3-2.2-0.8-3-1.6c-0.1,0.1-0.3,0.2-0.4,0.3c-4.3,3-10.3,2-13.3-2.4c0,0-0.1-0.1-0.1-0.1
		c-1.1-1.6-1.6-3.4-1.7-5.3c-5-0.9-8.2-5.7-7.3-10.6c0.4-1.9,1.3-3.7,2.7-5c-2.4-4-1.1-9.3,2.9-11.7c0.9-0.6,2-1,3.1-1.1
		c2.8-7.4,12-10.9,18.3-6.1c5.8-2,12.1,1.1,14.1,6.9c0.5,1.4,0.7,2.9,0.6,4.4c3.3,1,5.1,4.6,4.1,7.8C51.5,32.9,50.8,33.9,50,34.6
		L50,34.6z M42.1,43c-0.3-2.3-4.6-0.5-4.8-3c-0.3-3.6,4.9-11.3,4.5-14.3c-0.1-1.9-1.7-3.4-3.6-3.3c0,0-0.1,0-0.1,0
		c-0.8-0.1-1.7,0.1-2.4,0.5c-0.3,0.2-0.7,0.5-1.3,0c-0.5-0.7-1.3-1.2-2.2-1.4c-1.1-0.2-2.3,0.2-3,1.1c-0.4,0.3-1.3,1.4-2.2,1
		c-0.4-0.2-1.7-0.9-2.7-1.3c-2.1-0.6-4.3,0.3-5.4,2.2c-1.4,2.6-4.3,12.7-4.7,14c-0.8,2,0.3,4.3,2.3,5.1c0.6,0.2,1.2,0.3,1.8,0.2
		c1.3,0,2.4-0.8,2.8-1.9c0.4-0.8,4.7-12.1,5-12.6c0.3-0.5,1-0.8,1.6-0.6c0.6,0.4,0.8,1,0.7,1.7c-0.1,1.1-3.1,7.9-3.2,8.7
		c-0.4,2.6,3,3,4.3,0.4c0.4-0.8,5.1-10.4,5.5-11c0.5-0.7,0.8-0.9,1.3-0.9c0.3,0,0.9,0.1,0.8,1.2c-0.2,1.1-3.9,8.1-4.4,9.8
		c-0.5,2.3,0.7,4.6,2.8,5.7C36.9,44.9,42.6,46,42.1,43L42.1,43z M42.8,53.3c-1.2,0.8-1.4,2.5-0.6,3.6c0.8,1.2,2.4,1.5,3.6,0.7
		c0,0,0,0,0,0c1.2-0.8,1.5-2.5,0.7-3.6C45.6,52.8,44,52.5,42.8,53.3C42.8,53.3,42.8,53.3,42.8,53.3L42.8,53.3z"/>
</g>
</svg>
