<?xml version="1.0" encoding="utf-8"?>
<!-- Generator: Adobe Illustrator 25.2.1, SVG Export Plug-In . SVG Version: 6.00 Build 0)  -->
<svg version="1.1" id="Layer_1" xmlns="http://www.w3.org/2000/svg" xmlns:xlink="http://www.w3.org/1999/xlink" x="0px" y="0px"
	 viewBox="0 0 60.5 60.5" style="enable-background:new 0 0 60.5 60.5;" xml:space="preserve">
<style type="text/css">
	.st0{fill:#FFFFFF;}
</style>
<g>
	<path id="Icon_awesome-telegram_3_" class="st0" d="M30.3,0.7C14.2,0.7,1,13.9,1,30s13.1,29.3,29.3,29.3
		c16.2,0,29.3-13.1,29.3-29.3c0,0,0,0,0,0C59.6,13.9,46.5,0.7,30.3,0.7C30.3,0.7,30.3,0.7,30.3,0.7z M44.7,20.8l-4.8,22.7
		c-0.4,1.6-1.3,2-2.6,1.2L30,39.3l-3.5,3.4c-0.4,0.5-0.9,0.7-1.5,0.7l0.5-7.5L39,23.7c0.6-0.5-0.1-0.8-0.9-0.3L21.4,34l-7.2-2.3
		c-1.6-0.5-1.6-1.6,0.3-2.3l28.2-10.9C44,18,45.2,18.8,44.7,20.8L44.7,20.8z"/>
</g>
</svg>
