<?xml version="1.0" encoding="utf-8"?>
<!-- Generator: Adobe Illustrator 25.2.1, SVG Export Plug-In . SVG Version: 6.00 Build 0)  -->
<svg version="1.1" id="Layer_1" xmlns="http://www.w3.org/2000/svg" xmlns:xlink="http://www.w3.org/1999/xlink" x="0px" y="0px"
	 viewBox="0 0 64.1 50" style="enable-background:new 0 0 64.1 50;" xml:space="preserve">
<style type="text/css">
	.st0{fill:#236FA9;}
	.st1{fill:none;stroke:#FFFFFF;stroke-width:2.5789;stroke-linecap:round;stroke-linejoin:round;}
</style>
<path class="st0" d="M42.2,0.3c0,0-8.7,1.3-17.9,4.9S8.8,10,5.1,14.7c-5.5,7-9.4,15.1,3.9,26.1s28.6,11.2,36.3,5.8
	s23.2-15.8,17.5-30.3S48.6-1,42.2,0.3z"/>
<g id="Icon_feather-book-open_4_" transform="translate(-1.5 -3)">
	<path id="Path_1_4_" class="st1" d="M22,17.3h7.7c2.8,0,5.2,2.3,5.2,5.2v18.1c0-2.1-1.7-3.9-3.9-3.9h-9V17.3z"/>
	<path id="Path_2_4_" class="st1" d="M47.8,17.3h-7.7c-2.8,0-5.2,2.3-5.2,5.2v18.1c0-2.1,1.7-3.9,3.9-3.9h9V17.3z"/>
</g>
</svg>
