<?xml version="1.0" encoding="utf-8"?>
<!-- Generator: Adobe Illustrator 25.2.1, SVG Export Plug-In . SVG Version: 6.00 Build 0)  -->
<svg version="1.1" id="Layer_1" xmlns="http://www.w3.org/2000/svg" xmlns:xlink="http://www.w3.org/1999/xlink" x="0px" y="0px"
	 viewBox="0 0 52.1 73.3" style="enable-background:new 0 0 52.1 73.3;" xml:space="preserve">
<style type="text/css">
	.st0{fill:#265E92;}
</style>
<g>
	<g>
		<g>
			<path class="st0" d="M0,47.8c0,14.1,11.5,25.5,25.6,25.5C25.6,59.2,14.1,47.8,0,47.8z"/>
		</g>
	</g>
	<path class="st0" d="M31.6,35.4c0,0.4,0,0.7-0.1,1.1c-0.1,0.4-0.2,0.7-0.3,1c-0.1,0.3-0.3,0.7-0.5,1c-0.2,0.3-0.4,0.6-0.7,0.8
		c-0.3,0.3-0.5,0.5-0.8,0.7c-0.3,0.2-0.6,0.4-1,0.5c-0.3,0.1-0.7,0.2-1,0.3c-0.4,0.1-0.7,0.1-1.1,0.1c-0.4,0-0.7,0-1.1-0.1
		c-0.4-0.1-0.7-0.2-1-0.3c-0.3-0.1-0.7-0.3-1-0.5c-0.3-0.2-0.6-0.4-0.8-0.7c-0.3-0.3-0.5-0.5-0.7-0.8c-0.2-0.3-0.4-0.6-0.5-1
		c-0.1-0.3-0.2-0.7-0.3-1c-0.1-0.4-0.1-0.7-0.1-1.1c0-0.4,0-0.7,0.1-1.1c0.1-0.4,0.2-0.7,0.3-1c0.1-0.3,0.3-0.7,0.5-1
		c0.2-0.3,0.4-0.6,0.7-0.8c0.3-0.3,0.5-0.5,0.8-0.7c0.3-0.2,0.6-0.4,1-0.5c0.3-0.1,0.7-0.2,1-0.3c0.4-0.1,0.7-0.1,1.1-0.1
		c0.4,0,0.7,0,1.1,0.1c0.4,0.1,0.7,0.2,1,0.3s0.7,0.3,1,0.5c0.3,0.2,0.6,0.4,0.8,0.7c0.3,0.3,0.5,0.5,0.7,0.8c0.2,0.3,0.4,0.6,0.5,1
		c0.1,0.3,0.2,0.7,0.3,1C31.5,34.7,31.6,35.1,31.6,35.4z"/>
	<g>
		<g>
			<path class="st0" d="M52.1,47.8c-14.1,0-25.6,11.4-25.6,25.5C40.7,73.3,52.1,61.9,52.1,47.8z"/>
		</g>
	</g>
	<g>
		<path class="st0" d="M37.5,17.3l-2.7-2.7c-0.2-0.2-0.7-0.1-0.7,0.2c-0.1,0.5-0.3,1-0.4,1.5c-0.1,0.3,0,0.6,0.2,0.8l1.1,1.1
			c6,6,6,15.7,0,21.7l-8.4,8.4c-0.2,0.2-0.6,0.2-0.8,0L17.2,40c-6-6-6-15.7,0-21.7l0.7-0.7c0.2-0.2,0.3-0.5,0.2-0.8
			c-0.2-0.5-0.3-1.1-0.5-1.6c-0.1-0.3-0.4-0.4-0.6-0.2l-2.3,2.3c-8.8,8.8-8.8,23.1,0,31.9L25.5,60c0.3,0.3,0.8,0.3,1.1,0l10.9-10.8
			C46.3,40.3,46.3,26.1,37.5,17.3z"/>
	</g>
	<path class="st0" d="M30.2,7.2L25.8,0l-4.1,7.2c-0.9,1.5-1,3.5,0,5.1c1.4,2.3,4.5,3.1,6.8,1.7S31.6,9.5,30.2,7.2z"/>
</g>
</svg>
