<?xml version="1.0" encoding="utf-8"?>
<!-- Generator: Adobe Illustrator 25.2.1, SVG Export Plug-In . SVG Version: 6.00 Build 0)  -->
<svg version="1.1" id="Layer_1" xmlns="http://www.w3.org/2000/svg" xmlns:xlink="http://www.w3.org/1999/xlink" x="0px" y="0px"
	 viewBox="0 0 21.8 21.8" style="enable-background:new 0 0 21.8 21.8;" xml:space="preserve">
<style type="text/css">
	.st0{fill:#4FAFCF;}
</style>
<g>
	<g>
		<g>
			<g>
				<path class="st0" d="M21.5,20.2L15.3,14c1.2-1.5,2-3.4,2-5.4c0-4.7-3.9-8.5-8.6-8.5S0,3.8,0,8.6s3.9,8.5,8.6,8.5
					c2,0,3.9-0.7,5.4-1.9l6.3,6.3c0.4,0.4,0.9,0.4,1.3,0C21.9,21.2,21.9,20.6,21.5,20.2z M1.8,8.6c0-3.7,3-6.7,6.8-6.7
					s6.8,3,6.8,6.7s-3,6.7-6.8,6.7S1.8,12.2,1.8,8.6z"/>
			</g>
		</g>
	</g>
</g>
</svg>
