<?xml version="1.0" encoding="utf-8"?>
<!-- Generator: Adobe Illustrator 25.2.1, SVG Export Plug-In . SVG Version: 6.00 Build 0)  -->
<svg version="1.1" id="Layer_1" xmlns="http://www.w3.org/2000/svg" xmlns:xlink="http://www.w3.org/1999/xlink" x="0px" y="0px"
	 viewBox="0 0 60.5 60.5" style="enable-background:new 0 0 60.5 60.5;" xml:space="preserve">
<style type="text/css">
	.st0{fill:#FFFFFF;}
</style>
<g>
	<path id="Icon_awesome-whatsapp_3_" class="st0" d="M50.5,10C39.3-1.1,21.3-1.1,10.2,10c-9.1,9.1-11,23.2-4.5,34.3l-4,14.8l15.1-4
		c4.2,2.3,8.9,3.5,13.6,3.5h0c15.8,0,28.6-12.7,28.7-28.5C59,22.6,55.9,15.3,50.5,10z M30.3,53.8c-4.2,0-8.4-1.1-12.1-3.3L17.4,50
		l-9,2.3l2.4-8.7l-0.6-0.9c-6.8-11.2-3.2-25.8,8-32.6s25.8-3.2,32.6,8c2.2,3.6,3.4,7.8,3.4,12C54.1,43.3,43.5,53.8,30.3,53.8
		L30.3,53.8z M43.3,36.1c-0.7-0.4-4.2-2.1-4.9-2.3s-1.1-0.4-1.6,0.4c-0.5,0.7-1.8,2.3-2.3,2.8c-0.4,0.5-0.8,0.5-1.5,0.2
		c-4.1-1.6-7.5-4.6-9.7-8.5c-0.7-1.3,0.7-1.2,2.1-3.9c0.2-0.4,0.2-0.9-0.1-1.2c-0.2-0.4-1.6-3.9-2.2-5.3c-0.6-1.4-1.2-1.2-1.6-1.2
		c-0.4,0-0.9,0-1.4,0c-0.7,0-1.4,0.3-1.9,0.9c-1.6,1.5-2.5,3.7-2.5,5.9c0.2,2.7,1.2,5.2,2.9,7.4c0.4,0.5,5,7.7,12.2,10.7
		c4.5,2,6.3,2.1,8.5,1.8c2-0.4,3.7-1.6,4.8-3.4c0.5-1.1,0.6-2.2,0.4-3.4C44.5,36.6,44,36.4,43.3,36.1z"/>
</g>
</svg>
