<?xml version="1.0" encoding="utf-8"?>
<!-- Generator: Adobe Illustrator 25.2.1, SVG Export Plug-In . SVG Version: 6.00 Build 0)  -->
<svg version="1.1" id="Layer_1" xmlns="http://www.w3.org/2000/svg" xmlns:xlink="http://www.w3.org/1999/xlink" x="0px" y="0px"
	 viewBox="0 0 60.5 60.5" style="enable-background:new 0 0 60.5 60.5;" xml:space="preserve">
<style type="text/css">
	.st0{fill:#FFFFFF;}
</style>
<g>
	<g>
		<path class="st0" d="M13.9,44.1c0,4.9,0,9.8,0,14.8c0,0.1,0,0.2,0,0.3c0,0.4,0,0.4-0.5,0.4c-3.3,0-6.7,0-10,0c-0.5,0-1,0-1.4,0
			c-0.2,0-0.3-0.1-0.3-0.3c0-0.1,0-0.2,0-0.4c0-7.8,0-15.6,0-23.4c0-0.2,0-0.4,0-0.6c0-0.2,0-0.4,0-0.6c0-4.5,0-9,0-13.5
			c0-0.1,0-0.2,0-0.3c0-0.4,0-0.4,0.5-0.4c3.4,0,6.8,0,10.2,0c0.4,0,0.9,0,1.3,0c0.2,0,0.3,0.1,0.3,0.3c0,0.1,0,0.3,0,0.4
			c0,7.4,0,14.7,0,22.1c0,0.2,0,0.4,0,0.6C13.9,43.8,13.9,44,13.9,44.1z"/>
		<path class="st0" d="M7.7,15c-4,0-7.2-3.3-7.2-7.3c0-4,3.2-7.3,7.2-7.3c4,0,7.2,3.3,7.2,7.3C15,11.8,11.7,15,7.7,15z"/>
		<path class="st0" d="M59.6,59c0,0.1,0,0.2,0,0.3c0,0.3,0,0.3-0.4,0.3c-1.2,0-2.4,0-3.7,0c-2.5,0-5,0-7.5,0c-0.1,0-0.2,0-0.4,0
			c-0.2,0-0.3-0.1-0.2-0.2c0-0.1,0-0.2,0-0.4c0-6.7,0-13.3,0-20c0-1.4-0.1-2.8-0.5-4.1c-0.2-0.7-0.5-1.4-0.8-2
			c-0.8-1.4-2.1-2.3-3.7-2.6c-1.4-0.3-2.9-0.2-4.3,0.2c-2,0.6-3.4,2-4.1,4c-0.6,1.5-0.7,3-0.7,4.6c0,5,0,9.9,0,14.9
			c0,1.7,0,3.4,0,5.1c0,0.1,0,0.2,0,0.3c0,0.2-0.1,0.2-0.2,0.2c-0.1,0-0.2,0-0.3,0c-3.6,0-7.1,0-10.7,0c-0.6,0-0.5,0-0.5-0.5
			c0-7.4,0-14.8,0-22.2c0-0.2,0-0.4,0-0.6c0-0.2,0-0.4,0-0.6c0-4.9,0-9.9,0-14.8c0-0.1,0-0.2,0-0.4c0-0.3,0.1-0.3,0.3-0.3
			c1,0,2,0,3.1,0c2.6,0,5.1,0,7.7,0c0.1,0,0.2,0,0.3,0c0.3,0,0.3,0,0.3,0.4c0,1.4,0,2.9,0,4.3c0,0.1,0,0.3,0,0.5
			c0.2-0.1,0.2-0.2,0.3-0.4c0.6-0.9,1.3-1.7,2.2-2.4c1-0.8,2-1.6,3.1-2.1c1.3-0.7,2.8-1.1,4.2-1.3c2.6-0.3,5.1-0.1,7.6,0.7
			c1.6,0.6,3.1,1.4,4.4,2.6c0.1,0.1,0.2,0.1,0.3,0.2c0,0.1,0.1,0.1,0.2,0.2c0.4,0.5,0.8,0.9,1.2,1.4c1.2,1.7,2,3.7,2.4,5.8
			c0.3,1.3,0.4,2.6,0.4,3.9c0,4.2,0,8.3,0,12.5C59.6,50.6,59.6,54.8,59.6,59z"/>
	</g>
</g>
</svg>
