<?xml version="1.0" encoding="utf-8"?>
<!-- Generator: Adobe Illustrator 25.2.1, SVG Export Plug-In . SVG Version: 6.00 Build 0)  -->
<svg version="1.1" id="Layer_1" xmlns="http://www.w3.org/2000/svg" xmlns:xlink="http://www.w3.org/1999/xlink" x="0px" y="0px"
	 viewBox="0 0 58.9 55.3" style="enable-background:new 0 0 58.9 55.3;" xml:space="preserve">
<style type="text/css">
	.st0{fill:#FFFFFF;}
</style>
<g>
	<path class="st0" d="M47.5,0.3H11.8c-5.3,0-9.6,4.3-9.6,9.6v35.7c0,5.3,4.3,9.6,9.6,9.6h35.7c5.3,0,9.6-4.3,9.6-9.6V9.9
		C57,4.6,52.7,0.3,47.5,0.3z M36.9,28.8h-5.2v18h-7.7v-18h-2.5v-7.7h2.5v-2.8c0-0.7,0.1-1.5,0.3-2.5c0.2-0.9,0.6-1.8,1.1-2.5
		c0.6-0.8,1.3-1.4,2.3-2c1-0.5,2.2-0.8,3.8-0.8l5.4,0.1v5.3h-3.4c-0.3,0-0.7,0.3-1.1,0.8c-0.4,0.5-0.6,1.1-0.6,1.9v2.5h5.9
		L36.9,28.8z"/>
</g>
</svg>
