<?xml version="1.0" encoding="utf-8"?>
<!-- Generator: Adobe Illustrator 25.2.1, SVG Export Plug-In . SVG Version: 6.00 Build 0)  -->
<svg version="1.1" id="Layer_1" xmlns="http://www.w3.org/2000/svg" xmlns:xlink="http://www.w3.org/1999/xlink" x="0px" y="0px"
	 viewBox="0 0 48 48" style="enable-background:new 0 0 48 48;" xml:space="preserve">
<style type="text/css">
	.st0{fill:#207F29;}
	.st1{fill:#F8C310;}
	.st2{fill:#54B1F7;}
</style>
<g>
	<g>
		<path class="st0" d="M4.4,28.4c0,10.8,8.7,19.5,19.5,19.5C23.9,37.1,15.2,28.4,4.4,28.4z"/>
	</g>
</g>
<path class="st1" d="M29.6,18c0,0.3,0,0.7-0.1,1c-0.1,0.3-0.2,0.7-0.3,1c-0.1,0.3-0.3,0.6-0.5,0.9s-0.4,0.6-0.7,0.8
	c-0.2,0.2-0.5,0.5-0.8,0.7c-0.3,0.2-0.6,0.4-0.9,0.5c-0.3,0.1-0.6,0.2-1,0.3c-0.3,0.1-0.7,0.1-1,0.1s-0.7,0-1-0.1
	c-0.3-0.1-0.7-0.2-1-0.3c-0.3-0.1-0.6-0.3-0.9-0.5c-0.3-0.2-0.6-0.4-0.8-0.7c-0.2-0.2-0.5-0.5-0.7-0.8c-0.2-0.3-0.4-0.6-0.5-0.9
	c-0.1-0.3-0.2-0.6-0.3-1c-0.1-0.3-0.1-0.7-0.1-1c0-0.3,0-0.7,0.1-1c0.1-0.3,0.2-0.7,0.3-1s0.3-0.6,0.5-0.9c0.2-0.3,0.4-0.6,0.7-0.8
	c0.2-0.2,0.5-0.5,0.8-0.7c0.3-0.2,0.6-0.4,0.9-0.5c0.3-0.1,0.6-0.2,1-0.3c0.3-0.1,0.7-0.1,1-0.1s0.7,0,1,0.1c0.3,0.1,0.7,0.2,1,0.3
	c0.3,0.1,0.6,0.3,0.9,0.5c0.3,0.2,0.6,0.4,0.8,0.7c0.2,0.2,0.5,0.5,0.7,0.8c0.2,0.3,0.4,0.6,0.5,0.9c0.1,0.3,0.2,0.6,0.3,1
	C29.5,17.4,29.6,17.7,29.6,18z"/>
<g>
	<g>
		<path class="st0" d="M44.2,28.4c-10.8,0-19.5,8.7-19.5,19.5C35.4,47.9,44.2,39.1,44.2,28.4z"/>
	</g>
</g>
<g>
	<path class="st0" d="M33,5.2l-2-2c-0.2-0.2-0.5-0.1-0.6,0.2c-0.1,0.4-0.2,0.8-0.3,1.2c-0.1,0.2,0,0.4,0.1,0.6L31,5.9
		c4.6,4.6,4.6,12,0,16.6l-6.4,6.4c-0.2,0.2-0.5,0.2-0.6,0l-6.4-6.4c-4.6-4.6-4.6-12,0-16.6l0.5-0.5c0.2-0.2,0.2-0.4,0.1-0.6
		c-0.1-0.4-0.3-0.8-0.4-1.2c0-0.2-0.3-0.3-0.5-0.1l-1.8,1.8c-6.7,6.7-6.7,17.6,0,24.3l8.3,8.3c0.2,0.2,0.6,0.2,0.8,0l8.3-8.3
		C39.7,22.7,39.7,11.9,33,5.2z"/>
</g>
<path class="st2" d="M27.4,5.6l-3.3-5.4l-3,5.3c-0.7,1.1-0.8,2.6,0,3.8c1.1,1.7,3.3,2.3,5.1,1.2S28.4,7.3,27.4,5.6z"/>
</svg>
